/* XPM */
static char * users\zhang\desktop\pi\addblk_xpm[] = {
"18 18 2 1",
" 	c Gray94",
".	c Black",
"                  ",
"                  ",
"                  ",
"                  ",
"                  ",
"   . . . . . . .  ",
"                  ",
"                  ",
"                  ",
"                  ",
"    ... ... ...   ",
"    .   .   . .   ",
"    ... ... ...   ",
"      . .   .     ",
"    ... ... .     ",
"                  ",
"                  ",
"                  "};
