/* XPM */
static char * users\zhang\desktop\pi\addbus_xpm[] = {
"18 18 3 1",
" 	c Gray94",
".	c Black",
"X	c #a0a0a0",
"                  ",
"                  ",
" ..............   ",
" .XXX......XXX.   ",
" ....XX..XX....   ",
" ......XX......   ",
" ....XX..XX....   ",
" .XXX......XXX.   ",
" ..............   ",
" ..............   ",
"                  ",
"  .... . . ...    ",
"  .  . . . .      ",
"  .... . . ...    ",
"  .  . . .   .    ",
"  .... ... ...    ",
"                  ",
"                  "};
