/* XPM */
static char * users\zhang\desktop\pi\addclk_xpm[] = {
"18 18 3 1",
" 	c Gray94",
".	c Black",
"X	c #a0a0a0",
"                  ",
"                  ",
"  .............   ",
"  ...XXX.XXX...   ",
"  ...X.X.X.X...   ",
"  ...X.X.X.X...   ",
"  ...X.X.X.X...   ",
"  .XXX.XXX.XXX.   ",
"  .............   ",
"  .............   ",
"                  ",
"  ... .   .  .    ",
"  .   .   . .     ",
"  .   .   ..      ",
"  .   .   . .     ",
"  ... ... .  .    ",
"                  ",
"                  "};
