/* XPM */
static char * documents and settings\zhangg\my documents\downloads\automatic_v1_3\draw_pixmaps\neg_xpm[] = {
"18 18 3 1",
" 	c Gray100",
".	c Black",
"X	c #c0c0c0",
"                  ",
"                  ",
"  ..............  ",
"  ...XX.....X...  ",
"  ...X.X....X...  ",
"  ...X..X...X...  ",
"  ...X...X..X...  ",
"  ...X....X.X...  ",
"  ...X.....XX...  ",
"  ..............  ",
"                  ",
"  .   . ... ....  ",
"  ..  . .   .     ",
"  . . . ... . ..  ",
"  .  .. .   .  .  ",
"  .   . ... ....  ",
"                  ",
"                  "};
