/* XPM */
static char * users\zhang\desktop\pi\addsig_xpm[] = {
"18 18 3 1",
" 	c Gray94",
".	c Black",
"X	c #a0a0a0",
"                  ",
"                  ",
"  ............    ",
"  ............    ",
"  .XXXX.......    ",
"  .....X......    ",
"  ......XXXXX.    ",
"  ............    ",
"  ............    ",
"  ............    ",
"                  ",
"   ... . ....     ",
"   .   . .        ",
"   ... . . ..     ",
"     . . .  .     ",
"   ... . ....     ",
"                  ",
"                  "};
