/* XPM */
static char * documents and settings\zhangg\×ÀÃæ\al\aln_xpm[] = {
"18 18 4 1",
" 	c Gray100",
".	c #008080",
"X	c #c0c0c0",
"o	c Black",
"                  ",
"  ..............  ",
"  .....X..X.....  ",
"  ....XX..X.....  ",
"  ...X.X..X.....  ",
"  ..XXXX..X.....  ",
"  .X...X..X.....  ",
"  X....X..XXXXX.  ",
"  ..............  ",
"                  ",
"                  ",
"       o   o      ",
"       oo  o      ",
"       ooo o      ",
"       o ooo      ",
"       o  oo      ",
"       o   o      ",
"                  "};
