/* XPM */
static char * documents and settings\zhangg\×ÀÃæ\al\alnn_xpm[] = {
"18 18 4 1",
" 	c Gray100",
".	c #008080",
"X	c #c0c0c0",
"o	c Black",
"                  ",
"  ..............  ",
"  .....X..X.....  ",
"  ....XX..X.....  ",
"  ...X.X..X.....  ",
"  ..XXXX..X.....  ",
"  .X...X..X.....  ",
"  X....X..XXXXX.  ",
"  ..............  ",
"                  ",
"                  ",
"   o   o  o   o   ",
"   oo  o  oo  o   ",
"   ooo o  ooo o   ",
"   o ooo  o ooo   ",
"   o  oo  o  oo   ",
"   o   o  o   o   ",
"                  "};
