/* XPM */
static char * users\zhang\desktop\show\show_call_xpm[] = {
"18 18 3 1",
" 	c #c0c0c0",
".	c Blue",
"X	c #808080",
"                  ",
"                  ",
"    ..            ",
"    ..X           ",
"   ....           ",
"   ....X          ",
"  ......          ",
"  ......X         ",
"   X..XXX         ",
"    ..X           ",
"    ..X           ",
"    ..X      ..   ",
"    ......  ....  ",
"    ......X ....  ",
"     XXXXXX  ..   ",
"                  ",
"                  ",
"                  "};
