/* XPM */
static char * users\zhang\desktop\show\show_define_xpm[] = {
"18 18 3 1",
" 	c #c0c0c0",
".	c Blue",
"X	c #808080",
"                  ",
"                  ",
"   ..             ",
"  ....  ......    ",
"  ....  ......X   ",
"   ..    XXX..X   ",
"            ..X   ",
"            ..X   ",
"            ..X   ",
"          ......  ",
"          ......X ",
"           ....XX ",
"           ....X  ",
"            ..XX  ",
"            ..X   ",
"             XX   ",
"                  ",
"                  "};
